<?xml version="1.0" standalone="no"?>
<!DOCTYPE svg PUBLIC "-//W3C//DTD SVG 20010904//EN"
 "http://www.w3.org/TR/2001/REC-SVG-20010904/DTD/svg10.dtd">
<svg version="1.0" xmlns="http://www.w3.org/2000/svg"
 width="1200.000000pt" height="1200.000000pt" viewBox="0 0 1200.000000 1200.000000"
 preserveAspectRatio="xMidYMid meet">
<metadata>
Created by potrace 1.14, written by Peter Selinger 2001-2017
</metadata>
<g transform="translate(0.000000,1200.000000) scale(0.100000,-0.100000)"
fill="#000000" stroke="none">
<path d="M1200 6000 l0 -960 4800 0 4800 0 0 960 0 960 -4800 0 -4800 0 0
-960z m2650 178 l1 -123 21 29 c58 77 189 74 238 -7 18 -29 20 -51 20 -214 l0
-183 -55 0 c-45 0 -55 3 -56 18 0 9 -2 69 -3 132 -4 173 -4 178 -26 200 -39
39 -107 15 -131 -47 -5 -13 -9 -87 -9 -164 l0 -139 -60 0 -60 0 0 310 0 310
60 0 60 0 0 -122z m4290 77 l0 -45 -59 0 -58 0 0 45 0 45 58 0 59 0 0 -45z
m1630 -77 l1 -123 21 29 c58 77 189 74 238 -7 18 -29 20 -51 20 -214 l0 -183
-55 0 c-45 0 -55 3 -56 18 0 9 -2 69 -3 132 -4 173 -4 178 -26 200 -39 39
-107 15 -131 -47 -5 -13 -9 -87 -9 -164 l0 -139 -60 0 -60 0 0 310 0 310 60 0
60 0 0 -122z m-7455 -215 l92 -283 -63 0 -63 0 -11 43 c-26 100 -16 92 -118
95 -103 3 -100 5 -123 -85 l-13 -53 -64 0 c-55 0 -63 2 -58 16 4 10 46 138 94
286 l87 269 74 -3 74 -3 92 -282z m1023 240 c0 -27 1 -54 1 -60 1 -9 24 -13
81 -13 l80 0 0 -40 0 -40 -80 0 c-69 0 -80 -2 -81 -17 -1 -10 -1 -72 -1 -138
1 -147 3 -150 110 -141 l73 6 -3 -38 c-3 -43 -18 -49 -126 -51 -73 -1 -120 16
-150 54 -20 26 -22 39 -22 176 l0 149 -35 0 c-34 0 -35 1 -35 39 0 39 1 40 37
43 35 3 37 6 56 61 18 56 19 57 57 57 l39 0 -1 -47z m2912 -188 l0 -235 130 0
130 0 0 -50 0 -50 -190 0 -190 0 0 285 0 285 60 0 60 0 0 -235z m-3322 69 l3
-50 -63 4 c-123 6 -159 -45 -166 -235 l-4 -123 -59 0 -59 0 0 188 c0 103 -4
204 -9 225 l-9 37 59 0 59 0 6 -40 c4 -22 9 -40 13 -40 3 0 14 14 23 30 24 42
70 60 143 57 l60 -2 3 -51z m2370 0 l3 -50 -63 4 c-123 6 -159 -45 -166 -235
l-4 -123 -59 0 -59 0 0 188 c0 103 -4 204 -9 225 l-9 37 59 0 59 0 6 -40 c4
-22 9 -40 13 -40 3 0 14 14 23 30 24 42 70 60 143 57 l60 -2 3 -51z m1688 37
c67 -31 114 -109 114 -192 l0 -39 -150 0 -150 0 0 -31 c0 -41 27 -85 62 -100
37 -15 94 -4 112 23 13 18 21 20 70 14 50 -7 55 -9 46 -25 -17 -32 -79 -80
-117 -90 -131 -37 -255 20 -288 133 -40 135 7 264 115 310 49 21 136 20 186
-3z m579 8 c42 -12 105 -67 105 -92 0 -11 -14 -18 -45 -23 -41 -6 -48 -4 -70
20 -19 21 -33 26 -70 26 -59 0 -85 -14 -85 -45 0 -29 17 -39 95 -55 137 -28
185 -67 185 -152 0 -43 -4 -54 -33 -83 -38 -38 -89 -55 -167 -55 -102 0 -163
29 -196 92 -16 31 -14 33 49 42 31 5 47 4 47 -3 0 -6 9 -20 20 -31 15 -15 33
-20 76 -20 71 0 94 12 94 50 0 32 -21 42 -152 75 -53 13 -74 25 -98 51 -61 70
-29 166 65 199 48 17 126 19 180 4z m1233 -9 c54 -33 62 -67 62 -265 l0 -175
-55 0 c-45 0 -55 3 -56 18 0 9 -2 69 -3 132 -4 173 -4 178 -26 200 -39 39
-107 15 -131 -47 -5 -13 -9 -87 -9 -164 l0 -139 -60 0 -60 0 0 225 0 225 55 0
55 0 0 -35 c0 -42 11 -45 35 -9 34 53 133 70 193 34z m547 9 c42 -12 105 -67
105 -92 0 -11 -14 -18 -45 -23 -41 -6 -48 -4 -70 20 -19 21 -33 26 -70 26 -59
0 -85 -14 -85 -45 0 -29 17 -39 95 -55 137 -28 185 -67 185 -152 0 -43 -4 -54
-33 -83 -38 -38 -89 -55 -167 -55 -102 0 -163 29 -196 92 -16 31 -14 33 49 42
31 5 47 4 47 -3 0 -6 9 -20 20 -31 15 -15 33 -20 76 -20 71 0 94 12 94 50 0
32 -21 42 -152 75 -53 13 -74 25 -98 51 -61 70 -29 166 65 199 48 17 126 19
180 4z m-4905 -158 c0 -145 2 -161 21 -185 33 -42 86 -31 114 24 11 22 15 64
15 175 l0 145 60 0 60 0 0 -209 c0 -115 3 -216 6 -225 5 -14 -3 -16 -55 -16
l-61 0 0 43 0 42 -26 -33 c-50 -63 -129 -80 -192 -42 -54 33 -62 67 -62 265
l0 175 60 0 60 0 0 -159z m3700 -26 l0 -185 75 0 75 0 0 -40 0 -40 -215 0
-215 0 0 40 0 40 80 0 c92 0 82 -20 82 155 0 58 -1 112 -1 120 -1 12 -15 15
-61 15 l-60 0 0 40 0 40 120 0 120 0 0 -185z"/>
<path d="M2116 6042 c-16 -59 -31 -113 -34 -119 -3 -10 14 -13 65 -13 l70 0
-31 114 c-17 63 -34 117 -37 120 -2 3 -18 -43 -33 -102z"/>
<path d="M6842 6054 c-15 -7 -42 -57 -42 -79 0 -12 16 -15 95 -15 106 0 111 4
72 61 -20 29 -29 34 -67 36 -25 1 -51 -1 -58 -3z"/>
</g>
</svg>
